# xmcd
#
# Track frame offsets:
#	150
#	15711
#	32497
#	48376
#	61712
#	74682
#	87948
#	106910
#	128533
#	144416
#	161519
#	174695
#
# Disc length: 2507 seconds
#
# Revision: 0
# Processed by: cddbd v1.5.2PL0 Copyright (c) Steve Scherf et al.
# Submitted via: dBpowerAMP V4.0
#
DISCID=9809c90c
DTITLE=Diego and Gabriel - Promocional
DYEAR=2008
DGENRE=Country
TTITLE0=Caso Complicado
TTITLE1=Agarrada em Mim
TTITLE2=Pra Esquecer Essa Mulher
TTITLE3=Você me Iludiu
TTITLE4=Eu Quero ter Você
TTITLE5=Se Toca
TTITLE6=Eu Não Deixei de te Amar
TTITLE7=Pout-Pourri Telefone mudo/Boate Azul/Fio de Cabelo
TTITLE8=Estudar pra que
TTITLE9=Jogo do Amor
TTITLE10=Não Preciso Desse Amor
TTITLE11=Por Toda a Vida (Menina)
EXTD=
EXTT0=
EXTT1=
EXTT2=
EXTT3=
EXTT4=
EXTT5=
EXTT6=
EXTT7=
EXTT8=
EXTT9=
EXTT10=
EXTT11=
PLAYORDER=
